<?xml version="1.0" standalone="no"?>
<!DOCTYPE svg PUBLIC "-//W3C//DTD SVG 20010904//EN"
 "http://www.w3.org/TR/2001/REC-SVG-20010904/DTD/svg10.dtd">
<svg version="1.0" xmlns="http://www.w3.org/2000/svg"
 width="1526.000000pt" height="1526.000000pt" viewBox="0 0 1526.000000 1526.000000"
 preserveAspectRatio="xMidYMid meet">
<metadata>
Created by potrace 1.11, written by Peter Selinger 2001-2013
</metadata>
<g transform="translate(0.000000,1526.000000) scale(0.100000,-0.100000)"
fill="#000000" stroke="none">
<path d="M7325 15244 c-16 -2 -79 -9 -140 -15 -516 -51 -1084 -233 -1550 -497
-144 -81 -417 -268 -555 -378 -174 -139 -466 -431 -604 -604 -115 -144 -300
-417 -385 -567 -255 -452 -422 -968 -484 -1498 l-22 -190 3 -5747 3 -5748
4050 0 4049 0 0 5759 c0 3421 -4 5761 -9 5763 -5 2 -17 66 -26 143 -133 1118
-701 2108 -1590 2775 -569 426 -1195 683 -1910 781 -120 17 -215 22 -475 24
-179 2 -338 1 -355 -1z m663 -669 c640 -67 1253 -320 1767 -731 141 -113 406
-378 519 -519 605 -756 860 -1734 700 -2684 -194 -1157 -974 -2133 -2062
-2580 -283 -116 -581 -192 -912 -233 -162 -20 -623 -17 -787 5 -649 88 -1213
329 -1723 735 -128 103 -396 372 -504 507 -386 484 -621 1024 -717 1650 -30
198 -37 609 -15 825 61 580 275 1146 609 1615 204 286 503 587 787 791 471
339 1034 555 1613 618 173 19 545 19 725 1z m3042 -9750 l0 -4165 -3390 0
-3390 0 0 4147 c0 2281 4 4143 8 4138 5 -6 44 -59 88 -120 379 -528 890 -960
1482 -1255 415 -207 853 -336 1342 -397 179 -22 702 -25 875 -5 855 99 1597
420 2231 963 259 222 566 568 719 811 17 27 31 48 33 48 1 0 2 -1874 2 -4165z"/>
<path d="M7475 6294 c-324 -49 -585 -181 -799 -404 -185 -193 -300 -414 -353
-678 -26 -131 -23 -385 5 -519 37 -170 104 -333 195 -468 62 -92 169 -215 230
-265 31 -25 56 -48 57 -52 0 -7 -466 -1957 -476 -1990 -5 -17 62 -18 1306 -18
1046 0 1311 3 1307 12 -2 7 -111 459 -242 1004 l-238 992 44 38 c226 197 389
478 443 763 59 308 4 645 -146 907 -193 337 -502 568 -878 655 -83 20 -379 34
-455 23z m329 -674 c124 -32 208 -81 312 -184 141 -142 198 -279 198 -476 0
-154 -36 -264 -131 -398 -65 -92 -155 -160 -324 -247 -82 -42 -149 -78 -149
-80 0 -3 298 -1251 395 -1652 l5 -23 -470 0 c-258 0 -470 2 -470 3 0 2 90 379
200 837 110 459 200 835 200 837 0 1 -62 34 -137 72 -76 38 -166 89 -200 114
-177 131 -286 367 -269 584 18 240 154 446 368 558 140 74 318 95 472 55z"/>
</g>
</svg>
