<svg xmlns="http://www.w3.org/2000/svg" viewBox="0 0 379.5 713"><defs><style>.cls-1{fill:#fff;}</style></defs><title>Asset 3</title><g id="Layer_2" data-name="Layer 2"><g id="Layer_1-2" data-name="Layer 1"><rect class="cls-1" x="16" y="190" width="348" height="507.5"/><path d="M379.5,713H.5V174.5h379Zm-348-31h317V205.5H31.5Z"/><path d="M260.41,656H119.59l27-112.77a73,73,0,1,1,86.76,0ZM158.9,625H221.1l-23.35-97.41,11-5.51a42,42,0,1,0-37.5,0l11,5.51Z"/><circle class="cls-1" cx="189.5" cy="189.5" r="174"/><path d="M189.5,379C85,379,0,294,0,189.5S85,0,189.5,0,379,85,379,189.5,294,379,189.5,379Zm0-348C102.1,31,31,102.1,31,189.5S102.1,348,189.5,348,348,276.9,348,189.5,276.9,31,189.5,31Z"/></g></g></svg>